<svg xmlns="http://www.w3.org/2000/svg" width="128" height="128" viewBox="0 0 128 128" shape-rendering="crispEdges"><defs><g id="motif"><path fill="#8EDFFF" d="M16 2H20V13L26 7L29 10L22 16H34V20H22L29 26L26 29L20 23V34H16V23L10 29L7 26L14 20H2V16H14L7 10L10 7L16 13Z"/><path fill="#D9F8FF" d="M16 16H20V20H16ZM16 3H20V7H16ZM16 29H20V33H16Z"/></g></defs><use href="#motif" x="14" y="14"/><use href="#motif" transform="translate(114 14) scale(-1 1)"/><use href="#motif" transform="translate(14 114) scale(1 -1)"/><use href="#motif" x="78" y="78"/><rect x="5" y="5" width="3" height="3" fill="#D9F8FF"/><rect x="52" y="39" width="2" height="2" fill="#8EDFFF"/><rect x="116" y="5" width="3" height="3" fill="#D9F8FF"/><rect x="74" y="46" width="2" height="2" fill="#8EDFFF"/><rect x="6" y="116" width="3" height="3" fill="#D9F8FF"/><rect x="48" y="76" width="2" height="2" fill="#8EDFFF"/><rect x="117" y="116" width="3" height="3" fill="#D9F8FF"/><rect x="76" y="79" width="2" height="2" fill="#8EDFFF"/></svg>
