<svg xmlns="http://www.w3.org/2000/svg" width="128" height="128" viewBox="0 0 128 128" shape-rendering="crispEdges"><defs><g id="motif"><path fill="#9952DB" d="M9 3H14V8H20V5H24V9H28V14H32V21H27V26H22V30H15V34H9V29H15V25H11V22H5V18H3V12H7V8H10Z"/><path fill="#C88AFF" d="M11 10H17V13H23V17H28V20H23V18H17V16H10V13H7V11H11Z"/><path fill="#321344" d="M12 18H16V21H12Z"/></g></defs><use href="#motif" x="14" y="14"/><use href="#motif" transform="translate(114 14) scale(-1 1)"/><use href="#motif" transform="translate(14 114) scale(1 -1)"/><use href="#motif" x="78" y="78"/><rect x="5" y="5" width="3" height="3" fill="#C88AFF"/><rect x="52" y="39" width="2" height="2" fill="#9952DB"/><rect x="116" y="5" width="3" height="3" fill="#C88AFF"/><rect x="74" y="46" width="2" height="2" fill="#9952DB"/><rect x="6" y="116" width="3" height="3" fill="#C88AFF"/><rect x="48" y="76" width="2" height="2" fill="#9952DB"/><rect x="117" y="116" width="3" height="3" fill="#C88AFF"/><rect x="76" y="79" width="2" height="2" fill="#9952DB"/></svg>
