<svg xmlns="http://www.w3.org/2000/svg" width="128" height="128" viewBox="0 0 128 128" shape-rendering="crispEdges"><defs><g id="motif"><path fill="#FF6944" d="M15 2H21V8H25V12H29V18H33V27H29V32H7V27H3V19H7V13H11V17H15Z"/><path fill="#FFC24C" d="M16 15H20V19H24V24H28V28H24V31H12V28H8V24H12V20H16Z"/><path fill="#FFC24C" d="M19 4H21V8H19Z"/></g></defs><use href="#motif" x="14" y="14"/><use href="#motif" transform="translate(114 14) scale(-1 1)"/><use href="#motif" transform="translate(14 114) scale(1 -1)"/><use href="#motif" x="78" y="78"/><rect x="5" y="5" width="3" height="3" fill="#FFC24C"/><rect x="52" y="39" width="2" height="2" fill="#FF6944"/><rect x="116" y="5" width="3" height="3" fill="#FFC24C"/><rect x="74" y="46" width="2" height="2" fill="#FF6944"/><rect x="6" y="116" width="3" height="3" fill="#FFC24C"/><rect x="48" y="76" width="2" height="2" fill="#FF6944"/><rect x="117" y="116" width="3" height="3" fill="#FFC24C"/><rect x="76" y="79" width="2" height="2" fill="#FF6944"/></svg>
