<svg xmlns="http://www.w3.org/2000/svg" width="128" height="128" viewBox="0 0 128 128" shape-rendering="crispEdges"><defs><g id="motif"><path fill="#FFD33E" d="M20 2H28L22 14H31L14 34H10L15 21H5Z"/><path fill="#FFF39B" d="M20 4H24L18 16H24L13 28L17 19H10Z"/></g></defs><use href="#motif" x="14" y="14"/><use href="#motif" transform="translate(114 14) scale(-1 1)"/><use href="#motif" transform="translate(14 114) scale(1 -1)"/><use href="#motif" x="78" y="78"/><rect x="5" y="5" width="3" height="3" fill="#FFF39B"/><rect x="52" y="39" width="2" height="2" fill="#FFD33E"/><rect x="116" y="5" width="3" height="3" fill="#FFF39B"/><rect x="74" y="46" width="2" height="2" fill="#FFD33E"/><rect x="6" y="116" width="3" height="3" fill="#FFF39B"/><rect x="48" y="76" width="2" height="2" fill="#FFD33E"/><rect x="117" y="116" width="3" height="3" fill="#FFF39B"/><rect x="76" y="79" width="2" height="2" fill="#FFD33E"/></svg>
